<mxfile host="app.diagrams.net" modified="2024-04-07T07:20:22.488Z" agent="Mozilla/5.0 (X11; Linux x86_64) AppleWebKit/537.36 (KHTML, like Gecko) Chrome/123.0.0.0 Safari/537.36 Edg/123.0.0.0" version="24.2.0" etag="JARavY-8C-X-aQajb1aS" type="github">
  <diagram name="第 1 页" id="0eCbJpDnerH7YwCnIPwl">
    <mxGraphModel>
      <root>
        <mxCell id="0" />
        <mxCell id="1" parent="0" />
      </root>
    </mxGraphModel>
  </diagram>
</mxfile>
